<?xml version="1.0" encoding="UTF-8" standalone="no"?>
<!DOCTYPE svg PUBLIC "-//W3C//DTD SVG 1.1//EN"
 "http://www.w3.org/Graphics/SVG/1.1/DTD/svg11.dtd">
<!-- Generated by graphviz version 2.38.0 (20140413.2041)
 -->
<!-- Title: controllers_diagram Pages: 1 -->
<svg width="570pt" height="383pt"
 viewBox="0.00 0.00 570.42 383.00" xmlns="http://www.w3.org/2000/svg" xmlns:xlink="http://www.w3.org/1999/xlink">
<g id="graph0" class="graph" transform="scale(1 1) rotate(0) translate(220.104 253.5)">
<title>controllers_diagram</title>
<polygon fill="white" stroke="none" points="-220.104,129.5 -220.104,-253.5 350.317,-253.5 350.317,129.5 -220.104,129.5"/>
<!-- _diagram_info -->
<g id="node1" class="node"><title>_diagram_info</title>
<text text-anchor="start" x="-82.4497" y="-203.1" font-family="Times,serif" font-size="13.00">Controllers diagram</text>
<text text-anchor="start" x="-82.4497" y="-190.1" font-family="Times,serif" font-size="13.00">Date: Aug 14 2015 &#45; 16:16</text>
<text text-anchor="start" x="-82.4497" y="-177.1" font-family="Times,serif" font-size="13.00">Migration version: 20141123013808</text>
<text text-anchor="start" x="-82.4497" y="-164.1" font-family="Times,serif" font-size="13.00">Generated by RailRoady 1.3.0</text>
<text text-anchor="start" x="-82.4497" y="-151.1" font-family="Times,serif" font-size="13.00">http://railroady.prestonlee.com</text>
</g>
<!-- ApplicationController -->
<g id="node2" class="node"><title>ApplicationController</title>
<path fill="none" stroke="black" d="M155.683,-145C155.683,-145 334.317,-145 334.317,-145 340.317,-145 346.317,-151 346.317,-157 346.317,-157 346.317,-237 346.317,-237 346.317,-243 340.317,-249 334.317,-249 334.317,-249 155.683,-249 155.683,-249 149.683,-249 143.683,-243 143.683,-237 143.683,-237 143.683,-157 143.683,-157 143.683,-151 149.683,-145 155.683,-145"/>
<text text-anchor="middle" x="245" y="-233.8" font-family="Times,serif" font-size="14.00">ApplicationController</text>
<polyline fill="none" stroke="black" points="143.683,-227 346.317,-227 "/>
<text text-anchor="start" x="151.683" y="-211.8" font-family="Times,serif" font-size="14.00">_one_time_conditions_valid_52?</text>
<text text-anchor="start" x="151.683" y="-197.8" font-family="Times,serif" font-size="14.00">_one_time_conditions_valid_54?</text>
<polyline fill="none" stroke="black" points="143.683,-191 346.317,-191 "/>
<polyline fill="none" stroke="black" points="143.683,-167 346.317,-167 "/>
<text text-anchor="start" x="151.683" y="-151.8" font-family="Times,serif" font-size="14.00">_layout</text>
</g>
<!-- PagesController -->
<g id="node3" class="node"><title>PagesController</title>
<path fill="none" stroke="black" d="M-204.104,-1C-204.104,-1 -121.896,-1 -121.896,-1 -115.896,-1 -109.896,-7 -109.896,-13 -109.896,-13 -109.896,-93 -109.896,-93 -109.896,-99 -115.896,-105 -121.896,-105 -121.896,-105 -204.104,-105 -204.104,-105 -210.104,-105 -216.104,-99 -216.104,-93 -216.104,-93 -216.104,-13 -216.104,-13 -216.104,-7 -210.104,-1 -204.104,-1"/>
<text text-anchor="middle" x="-163" y="-89.8" font-family="Times,serif" font-size="14.00">PagesController</text>
<polyline fill="none" stroke="black" points="-216.104,-83 -109.896,-83 "/>
<text text-anchor="start" x="-208.104" y="-67.8" font-family="Times,serif" font-size="14.00">about</text>
<text text-anchor="start" x="-208.104" y="-53.8" font-family="Times,serif" font-size="14.00">home</text>
<polyline fill="none" stroke="black" points="-216.104,-47 -109.896,-47 "/>
<polyline fill="none" stroke="black" points="-216.104,-23 -109.896,-23 "/>
<text text-anchor="start" x="-208.104" y="-7.8" font-family="Times,serif" font-size="14.00">_layout</text>
</g>
<!-- PapActionsController -->
<g id="node4" class="node"><title>PapActionsController</title>
<path fill="none" stroke="black" d="M-60.0483,125C-60.0483,125 54.0483,125 54.0483,125 60.0483,125 66.0483,119 66.0483,113 66.0483,113 66.0483,-93 66.0483,-93 66.0483,-99 60.0483,-105 54.0483,-105 54.0483,-105 -60.0483,-105 -60.0483,-105 -66.0483,-105 -72.0483,-99 -72.0483,-93 -72.0483,-93 -72.0483,113 -72.0483,113 -72.0483,119 -66.0483,125 -60.0483,125"/>
<text text-anchor="middle" x="-3" y="-89.8" font-family="Times,serif" font-size="14.00">PapActionsController</text>
<polyline fill="none" stroke="black" points="-72.0483,-83 66.0483,-83 "/>
<text text-anchor="start" x="-64.0483" y="-67.8" font-family="Times,serif" font-size="14.00">create</text>
<text text-anchor="start" x="-64.0483" y="-53.8" font-family="Times,serif" font-size="14.00">destroy</text>
<text text-anchor="start" x="-64.0483" y="-39.8" font-family="Times,serif" font-size="14.00">edit</text>
<text text-anchor="start" x="-64.0483" y="-25.8" font-family="Times,serif" font-size="14.00">index</text>
<text text-anchor="start" x="-64.0483" y="-11.8" font-family="Times,serif" font-size="14.00">new</text>
<text text-anchor="start" x="-64.0483" y="2.2" font-family="Times,serif" font-size="14.00">sort</text>
<text text-anchor="start" x="-64.0483" y="16.2" font-family="Times,serif" font-size="14.00">update</text>
<polyline fill="none" stroke="black" points="-72.0483,23 66.0483,23 "/>
<polyline fill="none" stroke="black" points="-72.0483,47 66.0483,47 "/>
<text text-anchor="start" x="-64.0483" y="62.2" font-family="Times,serif" font-size="14.00">_layout</text>
<text text-anchor="start" x="-64.0483" y="76.2" font-family="Times,serif" font-size="14.00">all_project_actions</text>
<text text-anchor="start" x="-64.0483" y="90.2" font-family="Times,serif" font-size="14.00">current_project</text>
<text text-anchor="start" x="-64.0483" y="104.2" font-family="Times,serif" font-size="14.00">new_project_action</text>
<text text-anchor="start" x="-64.0483" y="118.2" font-family="Times,serif" font-size="14.00">set_project_action</text>
</g>
<!-- ProjectsController -->
<g id="node5" class="node"><title>ProjectsController</title>
<path fill="none" stroke="black" d="M119.8,107C119.8,107 222.2,107 222.2,107 228.2,107 234.2,101 234.2,95 234.2,95 234.2,-97 234.2,-97 234.2,-103 228.2,-109 222.2,-109 222.2,-109 119.8,-109 119.8,-109 113.8,-109 107.8,-103 107.8,-97 107.8,-97 107.8,95 107.8,95 107.8,101 113.8,107 119.8,107"/>
<text text-anchor="middle" x="171" y="-93.8" font-family="Times,serif" font-size="14.00">ProjectsController</text>
<polyline fill="none" stroke="black" points="107.8,-87 234.2,-87 "/>
<text text-anchor="start" x="115.8" y="-71.8" font-family="Times,serif" font-size="14.00">create</text>
<text text-anchor="start" x="115.8" y="-57.8" font-family="Times,serif" font-size="14.00">destroy</text>
<text text-anchor="start" x="115.8" y="-43.8" font-family="Times,serif" font-size="14.00">edit</text>
<text text-anchor="start" x="115.8" y="-29.8" font-family="Times,serif" font-size="14.00">index</text>
<text text-anchor="start" x="115.8" y="-15.8" font-family="Times,serif" font-size="14.00">new</text>
<text text-anchor="start" x="115.8" y="-1.8" font-family="Times,serif" font-size="14.00">sort</text>
<text text-anchor="start" x="115.8" y="12.2" font-family="Times,serif" font-size="14.00">update</text>
<polyline fill="none" stroke="black" points="107.8,19 234.2,19 "/>
<polyline fill="none" stroke="black" points="107.8,43 234.2,43 "/>
<text text-anchor="start" x="115.8" y="58.2" font-family="Times,serif" font-size="14.00">_layout</text>
<text text-anchor="start" x="115.8" y="72.2" font-family="Times,serif" font-size="14.00">all_projects_object</text>
<text text-anchor="start" x="115.8" y="86.2" font-family="Times,serif" font-size="14.00">new_project_object</text>
<text text-anchor="start" x="115.8" y="100.2" font-family="Times,serif" font-size="14.00">set_projects</text>
</g>
</g>
</svg>
