<?xml version="1.0" encoding="UTF-8" standalone="no"?>
<!DOCTYPE svg PUBLIC "-//W3C//DTD SVG 1.1//EN"
 "http://www.w3.org/Graphics/SVG/1.1/DTD/svg11.dtd">
<!-- Generated by graphviz version 2.38.0 (20140413.2041)
 -->
<!-- Title: models_diagram Pages: 1 -->
<svg width="438pt" height="635pt"
 viewBox="0.00 0.00 437.73 635.00" xmlns="http://www.w3.org/2000/svg" xmlns:xlink="http://www.w3.org/1999/xlink">
<g id="graph0" class="graph" transform="scale(1 1) rotate(0) translate(4 631)">
<title>models_diagram</title>
<polygon fill="white" stroke="none" points="-4,4 -4,-631 433.728,-631 433.728,4 -4,4"/>
<!-- _diagram_info -->
<g id="node1" class="node"><title>_diagram_info</title>
<text text-anchor="start" x="8" y="-521.6" font-family="Times,serif" font-size="13.00">Models diagram</text>
<text text-anchor="start" x="8" y="-508.6" font-family="Times,serif" font-size="13.00">Date: Aug 14 2015 &#45; 16:16</text>
<text text-anchor="start" x="8" y="-495.6" font-family="Times,serif" font-size="13.00">Migration version: 20141123013808</text>
<text text-anchor="start" x="8" y="-482.6" font-family="Times,serif" font-size="13.00">Generated by RailRoady 1.3.0</text>
<text text-anchor="start" x="8" y="-469.6" font-family="Times,serif" font-size="13.00">http://railroady.prestonlee.com</text>
</g>
<!-- PapAction -->
<g id="node2" class="node"><title>PapAction</title>
<path fill="none" stroke="black" d="M258.158,-0.5C258.158,-0.5 396.741,-0.5 396.741,-0.5 402.741,-0.5 408.741,-6.5 408.741,-12.5 408.741,-12.5 408.741,-172.5 408.741,-172.5 408.741,-178.5 402.741,-184.5 396.741,-184.5 396.741,-184.5 258.158,-184.5 258.158,-184.5 252.158,-184.5 246.158,-178.5 246.158,-172.5 246.158,-172.5 246.158,-12.5 246.158,-12.5 246.158,-6.5 252.158,-0.5 258.158,-0.5"/>
<text text-anchor="middle" x="327.45" y="-169.3" font-family="Times,serif" font-size="14.00">PapAction</text>
<polyline fill="none" stroke="black" points="246.158,-162.5 408.741,-162.5 "/>
<text text-anchor="start" x="254.158" y="-147.3" font-family="Times,serif" font-size="14.00">id :integer</text>
<text text-anchor="start" x="254.158" y="-133.3" font-family="Times,serif" font-size="14.00">acting_person_title :string</text>
<text text-anchor="start" x="254.158" y="-119.3" font-family="Times,serif" font-size="14.00">acting_person :string</text>
<text text-anchor="start" x="254.158" y="-105.3" font-family="Times,serif" font-size="14.00">action_statement :string</text>
<text text-anchor="start" x="254.158" y="-91.3" font-family="Times,serif" font-size="14.00">description :text</text>
<text text-anchor="start" x="254.158" y="-77.3" font-family="Times,serif" font-size="14.00">priority :integer</text>
<text text-anchor="start" x="254.158" y="-63.3" font-family="Times,serif" font-size="14.00">position :integer</text>
<text text-anchor="start" x="254.158" y="-49.3" font-family="Times,serif" font-size="14.00">state_of_action :string</text>
<text text-anchor="start" x="254.158" y="-35.3" font-family="Times,serif" font-size="14.00">project_id :integer</text>
<text text-anchor="start" x="254.158" y="-21.3" font-family="Times,serif" font-size="14.00">created_at :datetime</text>
<text text-anchor="start" x="254.158" y="-7.3" font-family="Times,serif" font-size="14.00">updated_at :datetime</text>
</g>
<!-- Project -->
<g id="node3" class="node"><title>Project</title>
<path fill="none" stroke="black" d="M272.944,-221.5C272.944,-221.5 381.955,-221.5 381.955,-221.5 387.955,-221.5 393.955,-227.5 393.955,-233.5 393.955,-233.5 393.955,-323.5 393.955,-323.5 393.955,-329.5 387.955,-335.5 381.955,-335.5 381.955,-335.5 272.944,-335.5 272.944,-335.5 266.944,-335.5 260.944,-329.5 260.944,-323.5 260.944,-323.5 260.944,-233.5 260.944,-233.5 260.944,-227.5 266.944,-221.5 272.944,-221.5"/>
<text text-anchor="middle" x="327.45" y="-320.3" font-family="Times,serif" font-size="14.00">Project</text>
<polyline fill="none" stroke="black" points="260.944,-313.5 393.955,-313.5 "/>
<text text-anchor="start" x="268.944" y="-298.3" font-family="Times,serif" font-size="14.00">id :integer</text>
<text text-anchor="start" x="268.944" y="-284.3" font-family="Times,serif" font-size="14.00">project_name :string</text>
<text text-anchor="start" x="268.944" y="-270.3" font-family="Times,serif" font-size="14.00">user_id :integer</text>
<text text-anchor="start" x="268.944" y="-256.3" font-family="Times,serif" font-size="14.00">created_at :datetime</text>
<text text-anchor="start" x="268.944" y="-242.3" font-family="Times,serif" font-size="14.00">updated_at :datetime</text>
<text text-anchor="start" x="268.944" y="-228.3" font-family="Times,serif" font-size="14.00">position :integer</text>
</g>
<!-- Project&#45;&gt;PapAction -->
<g id="edge1" class="edge"><title>Project&#45;&gt;PapAction</title>
<path fill="none" stroke="#016ca9" d="M327.45,-213.264C327.45,-207.325 327.45,-201.215 327.45,-195.047"/>
<ellipse fill="none" stroke="#016ca9" cx="327.45" cy="-217.294" rx="4" ry="4"/>
<polygon fill="#016ca9" stroke="#016ca9" points="327.45,-194.632 331.95,-184.632 327.45,-189.632 327.45,-184.632 327.45,-184.632 327.45,-184.632 327.45,-189.632 322.95,-184.633 327.45,-194.632 327.45,-194.632"/>
</g>
<!-- User -->
<g id="node4" class="node"><title>User</title>
<path fill="none" stroke="black" d="M237.172,-372.5C237.172,-372.5 417.728,-372.5 417.728,-372.5 423.728,-372.5 429.728,-378.5 429.728,-384.5 429.728,-384.5 429.728,-614.5 429.728,-614.5 429.728,-620.5 423.728,-626.5 417.728,-626.5 417.728,-626.5 237.172,-626.5 237.172,-626.5 231.172,-626.5 225.172,-620.5 225.172,-614.5 225.172,-614.5 225.172,-384.5 225.172,-384.5 225.172,-378.5 231.172,-372.5 237.172,-372.5"/>
<text text-anchor="middle" x="327.45" y="-611.3" font-family="Times,serif" font-size="14.00">User</text>
<polyline fill="none" stroke="black" points="225.172,-604.5 429.728,-604.5 "/>
<text text-anchor="start" x="233.172" y="-589.3" font-family="Times,serif" font-size="14.00">id :integer</text>
<text text-anchor="start" x="233.172" y="-575.3" font-family="Times,serif" font-size="14.00">email :string</text>
<text text-anchor="start" x="233.172" y="-561.3" font-family="Times,serif" font-size="14.00">encrypted_password :string</text>
<text text-anchor="start" x="233.172" y="-547.3" font-family="Times,serif" font-size="14.00">reset_password_token :string</text>
<text text-anchor="start" x="233.172" y="-533.3" font-family="Times,serif" font-size="14.00">reset_password_sent_at :datetime</text>
<text text-anchor="start" x="233.172" y="-519.3" font-family="Times,serif" font-size="14.00">remember_created_at :datetime</text>
<text text-anchor="start" x="233.172" y="-505.3" font-family="Times,serif" font-size="14.00">sign_in_count :integer</text>
<text text-anchor="start" x="233.172" y="-491.3" font-family="Times,serif" font-size="14.00">current_sign_in_at :datetime</text>
<text text-anchor="start" x="233.172" y="-477.3" font-family="Times,serif" font-size="14.00">last_sign_in_at :datetime</text>
<text text-anchor="start" x="233.172" y="-463.3" font-family="Times,serif" font-size="14.00">current_sign_in_ip :string</text>
<text text-anchor="start" x="233.172" y="-449.3" font-family="Times,serif" font-size="14.00">last_sign_in_ip :string</text>
<text text-anchor="start" x="233.172" y="-435.3" font-family="Times,serif" font-size="14.00">created_at :datetime</text>
<text text-anchor="start" x="233.172" y="-421.3" font-family="Times,serif" font-size="14.00">updated_at :datetime</text>
<text text-anchor="start" x="233.172" y="-407.3" font-family="Times,serif" font-size="14.00">first_name :string</text>
<text text-anchor="start" x="233.172" y="-393.3" font-family="Times,serif" font-size="14.00">last_name :string</text>
<text text-anchor="start" x="233.172" y="-379.3" font-family="Times,serif" font-size="14.00">organization :string</text>
</g>
<!-- User&#45;&gt;Project -->
<g id="edge2" class="edge"><title>User&#45;&gt;Project</title>
<path fill="none" stroke="#be8cf0" d="M327.45,-364.301C327.45,-357.896 327.45,-351.609 327.45,-345.535"/>
<ellipse fill="none" stroke="#be8cf0" cx="327.45" cy="-368.376" rx="4" ry="4"/>
<polygon fill="#be8cf0" stroke="#be8cf0" points="327.45,-345.531 331.95,-335.531 327.45,-340.531 327.45,-335.531 327.45,-335.531 327.45,-335.531 327.45,-340.531 322.95,-335.531 327.45,-345.531 327.45,-345.531"/>
</g>
</g>
</svg>
