<?xml version="1.0" encoding="UTF-8" standalone="no"?>
<!DOCTYPE svg PUBLIC "-//W3C//DTD SVG 1.1//EN"
 "http://www.w3.org/Graphics/SVG/1.1/DTD/svg11.dtd">
<!-- Generated by graphviz version 2.38.0 (20140413.2041)
 -->
<!-- Title: models_diagram Pages: 1 -->
<svg width="307pt" height="225pt"
 viewBox="0.00 0.00 306.89 225.00" xmlns="http://www.w3.org/2000/svg" xmlns:xlink="http://www.w3.org/1999/xlink">
<g id="graph0" class="graph" transform="scale(1 1) rotate(0) translate(4 221)">
<title>models_diagram</title>
<polygon fill="white" stroke="none" points="-4,4 -4,-221 302.891,-221 302.891,4 -4,4"/>
<!-- _diagram_info -->
<g id="node1" class="node"><title>_diagram_info</title>
<text text-anchor="start" x="8" y="-202.6" font-family="Times,serif" font-size="13.00">Models diagram</text>
<text text-anchor="start" x="8" y="-189.6" font-family="Times,serif" font-size="13.00">Date: Aug 14 2015 &#45; 16:16</text>
<text text-anchor="start" x="8" y="-176.6" font-family="Times,serif" font-size="13.00">Migration version: 20141123013808</text>
<text text-anchor="start" x="8" y="-163.6" font-family="Times,serif" font-size="13.00">Generated by RailRoady 1.3.0</text>
<text text-anchor="start" x="8" y="-150.6" font-family="Times,serif" font-size="13.00">http://railroady.prestonlee.com</text>
</g>
<!-- PapAction -->
<g id="node2" class="node"><title>PapAction</title>
<ellipse fill="none" stroke="black" cx="251.45" cy="-18" rx="47.3823" ry="18"/>
<text text-anchor="middle" x="251.45" y="-13.8" font-family="Times,serif" font-size="14.00">PapAction</text>
</g>
<!-- Project -->
<g id="node3" class="node"><title>Project</title>
<ellipse fill="none" stroke="black" cx="251.45" cy="-90" rx="35.3129" ry="18"/>
<text text-anchor="middle" x="251.45" y="-85.8" font-family="Times,serif" font-size="14.00">Project</text>
</g>
<!-- Project&#45;&gt;PapAction -->
<g id="edge1" class="edge"><title>Project&#45;&gt;PapAction</title>
<path fill="none" stroke="#c3099e" d="M251.45,-63.6398C251.45,-58.0629 251.45,-52.1319 251.45,-46.4761"/>
<ellipse fill="none" stroke="#c3099e" cx="251.45" cy="-67.6966" rx="4" ry="4"/>
<polygon fill="#c3099e" stroke="#c3099e" points="251.45,-46.1043 255.95,-36.1043 251.45,-41.1043 251.45,-36.1043 251.45,-36.1043 251.45,-36.1043 251.45,-41.1043 246.95,-36.1044 251.45,-46.1043 251.45,-46.1043"/>
</g>
<!-- User -->
<g id="node4" class="node"><title>User</title>
<ellipse fill="none" stroke="black" cx="251.45" cy="-180.5" rx="27" ry="18"/>
<text text-anchor="middle" x="251.45" y="-176.3" font-family="Times,serif" font-size="14.00">User</text>
</g>
<!-- User&#45;&gt;Project -->
<g id="edge2" class="edge"><title>User&#45;&gt;Project</title>
<path fill="none" stroke="#5cb855" d="M251.45,-154.189C251.45,-142.971 251.45,-129.752 251.45,-118.311"/>
<ellipse fill="none" stroke="#5cb855" cx="251.45" cy="-158.436" rx="4" ry="4"/>
<polygon fill="#5cb855" stroke="#5cb855" points="251.45,-118.011 255.95,-108.011 251.45,-113.011 251.45,-108.011 251.45,-108.011 251.45,-108.011 251.45,-113.011 246.95,-108.011 251.45,-118.011 251.45,-118.011"/>
</g>
</g>
</svg>
